<?xml version="1.0" standalone="no"?>
<!DOCTYPE svg PUBLIC "-//W3C//DTD SVG 20010904//EN"
 "http://www.w3.org/TR/2001/REC-SVG-20010904/DTD/svg10.dtd">
<svg version="1.0" xmlns="http://www.w3.org/2000/svg"
 width="700.000000pt" height="700.000000pt" viewBox="0 0 700.000000 700.000000"
 preserveAspectRatio="xMidYMid meet">
<metadata>
Created by potrace 1.11, written by Peter Selinger 2001-2013
</metadata>
<g transform="translate(0.000000,700.000000) scale(0.100000,-0.100000)"
fill="#000000" stroke="none">
<path d="M3309 6956 c-2 -2 -48 -6 -103 -10 -179 -12 -378 -46 -591 -101 -120
-31 -328 -99 -400 -130 -16 -7 -59 -25 -95 -40 -342 -146 -683 -365 -979 -630
-59 -53 -237 -238 -303 -315 -332 -388 -571 -839 -712 -1345 -41 -148 -66
-272 -101 -509 -33 -227 -26 -699 15 -936 5 -30 12 -73 15 -95 4 -22 8 -47 10
-55 2 -8 7 -29 10 -47 21 -128 120 -449 191 -620 257 -621 739 -1214 1269
-1559 33 -21 62 -41 65 -44 3 -3 44 -29 92 -58 280 -169 626 -313 938 -392
136 -35 181 -35 228 -1 62 44 62 42 59 523 -2 424 -3 437 -23 464 -50 67 -56
69 -277 72 -111 1 -223 6 -248 12 -210 43 -383 185 -632 520 -71 96 -135 181
-141 189 -6 8 26 -9 71 -36 75 -47 132 -88 287 -207 69 -53 215 -127 301 -151
129 -37 269 -49 358 -30 88 18 202 104 252 189 36 61 55 149 55 252 0 183 -14
200 -220 270 -453 152 -825 432 -1038 781 -242 397 -263 851 -60 1268 62 126
130 228 211 315 111 119 119 145 77 269 -42 128 -53 195 -52 306 1 115 26 223
74 327 35 77 31 77 131 26 145 -72 246 -146 378 -274 123 -119 140 -123 313
-69 251 77 495 116 745 117 145 1 316 -8 331 -17 3 -2 34 -6 70 -10 36 -3 79
-10 95 -15 17 -5 57 -14 90 -20 33 -7 117 -30 187 -51 191 -58 199 -57 326 64
142 136 235 203 377 274 94 47 98 48 117 10 61 -115 91 -243 91 -378 0 -105
-10 -160 -53 -291 -39 -118 -32 -149 55 -243 381 -409 477 -986 246 -1471
-220 -461 -678 -810 -1271 -969 -100 -26 -131 -42 -156 -80 -31 -47 -29 -93
10 -196 40 -108 72 -234 81 -327 4 -35 7 -339 7 -675 -1 -337 2 -629 5 -651 8
-50 59 -103 110 -112 47 -9 175 21 388 91 523 171 971 445 1361 830 265 262
437 488 621 818 183 327 341 789 388 1132 3 23 7 50 9 60 43 227 41 725 -4
1010 -7 39 -14 84 -16 100 -3 17 -7 37 -9 45 -2 8 -6 26 -9 40 -3 20 -22 103
-40 175 -63 255 -212 617 -359 870 -290 501 -714 934 -1214 1237 -99 60 -401
218 -418 218 -3 0 -24 9 -48 19 -228 103 -594 201 -906 242 -139 19 -618 38
-632 25z"/>
</g>
</svg>
